<?xml version="1.0" encoding="UTF-8" standalone="no"?>
<svg
   xmlns:dc="http://purl.org/dc/elements/1.1/"
   xmlns:cc="http://creativecommons.org/ns#"
   xmlns:rdf="http://www.w3.org/1999/02/22-rdf-syntax-ns#"
   xmlns:svg="http://www.w3.org/2000/svg"
   xmlns="http://www.w3.org/2000/svg"
   xmlns:sodipodi="http://sodipodi.sourceforge.net/DTD/sodipodi-0.dtd"
   xmlns:inkscape="http://www.inkscape.org/namespaces/inkscape"
   viewBox="0 0 32 32"
   version="1.1"
   width="50px"
   height="50px"
   id="svg2"
   inkscape:version="0.91 r13725"
   sodipodi:docname="c-sharp.svg">
  <metadata
     id="metadata11">
    <rdf:RDF>
      <cc:Work
         rdf:about="">
        <dc:format>image/svg+xml</dc:format>
        <dc:type
           rdf:resource="http://purl.org/dc/dcmitype/StillImage" />
      </cc:Work>
    </rdf:RDF>
  </metadata>
  <defs
     id="defs9" />
  <sodipodi:namedview
     pagecolor="#ffffff"
     bordercolor="#666666"
     borderopacity="1"
     objecttolerance="10"
     gridtolerance="10"
     guidetolerance="10"
     inkscape:pageopacity="0"
     inkscape:pageshadow="2"
     inkscape:window-width="742"
     inkscape:window-height="480"
     id="namedview7"
     showgrid="false"
     inkscape:zoom="4.72"
     inkscape:cx="25"
     inkscape:cy="25"
     inkscape:window-x="100"
     inkscape:window-y="100"
     inkscape:window-maximized="0"
     inkscape:current-layer="svg2" />
  <g
     id="surface1">
    <path
       style="fill:#ffffff"
       d="m 16,2.882813 -13,6.5 0,13.234375 13,6.5 13,-6.5 0,-13.234375 z m 0,2.234375 11,5.5 0,10.765625 -11,5.5 -11,-5.5 0,-10.765625 z M 13,10 c -3.300781,0 -6,2.699219 -6,6 0,3.300781 2.699219,6 6,6 1.5,0 2.902344,-0.601562 3.902344,-1.5 L 15.199219,19.300781 C 14.597656,19.699219 13.800781,20 13,20 10.800781,20 9,18.199219 9,16 c 0,-2.199219 1.800781,-4 4,-4 0.800781,0 1.597656,0.300781 2.199219,0.699219 L 16.902344,11.5 C 15.902344,10.601563 14.5,10 13,10 Z m 5,2 0,1 -1,0 0,2 1,0 0,2 -1,0 0,2 1,0 0,1 2,0 0,-1 2,0 0,1 2,0 0,-1 1,0 0,-2 -1,0 0,-2 1,0 0,-2 -1,0 0,-1 -2,0 0,1 -2,0 0,-1 z m 2,3 2,0 0,2 -2,0 z"
       id="path5"
       inkscape:connector-curvature="0" />
  </g>
</svg>
