<?xml version="1.0" encoding="iso-8859-1"?>
<!-- Generator: Adobe Illustrator 22.1.0, SVG Export Plug-In . SVG Version: 6.00 Build 0)  -->
<svg xmlns="http://www.w3.org/2000/svg" xmlns:xlink="http://www.w3.org/1999/xlink" version="1.1" id="Layer_1" x="0px" y="0px" viewBox="0 0 48 48" style="enable-background:new 0 0 48 48;" xml:space="preserve" width="50px" height="50px">
<path style="fill:#5D4037;" d="M42,17.333C42,37.846,24,44,24,44S6,37.846,6,17.333c0-2.471,0.161-4.611,0.354-6.288  c0.285-2.479,2.028-4.504,4.38-5.146C13.917,5.031,18.791,4,24,4s10.083,1.031,13.265,1.899c2.352,0.642,4.095,2.667,4.38,5.146  C41.839,12.722,42,14.862,42,17.333z"/>
<path style="fill:#4CAF50;" d="M24,7c4.88,0,9.478,0.975,12.476,1.793c1.186,0.324,2.046,1.342,2.19,2.595  C38.887,13.317,39,15.317,39,17.333c0,15.613-11.491,21.884-14.991,23.432C20.556,39.213,9,32.857,9,17.333  c0-2.016,0.113-4.016,0.335-5.945c0.144-1.253,1.004-2.271,2.19-2.595C14.522,7.975,19.12,7,24,7 M24,4  c-5.209,0-10.083,1.031-13.265,1.899c-2.352,0.642-4.095,2.667-4.38,5.146C6.161,12.722,6,14.862,6,17.333C6,37.846,24,44,24,44  s18-6.154,18-26.667c0-2.471-0.161-4.611-0.354-6.288c-0.285-2.479-2.028-4.504-4.38-5.146C34.083,5.031,29.209,4,24,4L24,4z"/>
<line style="fill:none;stroke:#DCEDC8;stroke-width:2;stroke-miterlimit:10;" x1="24" y1="36" x2="24" y2="28"/>
<path style="fill:#4CAF50;" d="M24,10c0,0-6,5-6,13c0,5.186,3.293,8.514,5,10l1-3l1,3c1.707-1.486,5-4.814,5-10C30,15,24,10,24,10z"/>
<path style="fill:#81C784;" d="M24,10c0,0-6,5-6,13c0,5.186,3.293,8.514,5,10l1-3V10z"/>
</svg>
