<?xml version="1.0" encoding="UTF-8" standalone="no"?>
<svg
   xmlns:dc="http://purl.org/dc/elements/1.1/"
   xmlns:cc="http://creativecommons.org/ns#"
   xmlns:rdf="http://www.w3.org/1999/02/22-rdf-syntax-ns#"
   xmlns:svg="http://www.w3.org/2000/svg"
   xmlns="http://www.w3.org/2000/svg"
   xmlns:sodipodi="http://sodipodi.sourceforge.net/DTD/sodipodi-0.dtd"
   xmlns:inkscape="http://www.inkscape.org/namespaces/inkscape"
   viewBox="0 0 50 50"
   version="1.1"
   width="50px"
   height="50px"
   id="svg2"
   inkscape:version="0.91 r13725"
   sodipodi:docname="mysql.svg">
  <metadata
     id="metadata11">
    <rdf:RDF>
      <cc:Work
         rdf:about="">
        <dc:format>image/svg+xml</dc:format>
        <dc:type
           rdf:resource="http://purl.org/dc/dcmitype/StillImage" />
      </cc:Work>
    </rdf:RDF>
  </metadata>
  <defs
     id="defs9" />
  <sodipodi:namedview
     pagecolor="#ffffff"
     bordercolor="#666666"
     borderopacity="1"
     objecttolerance="10"
     gridtolerance="10"
     guidetolerance="10"
     inkscape:pageopacity="0"
     inkscape:pageshadow="2"
     inkscape:window-width="742"
     inkscape:window-height="480"
     id="namedview7"
     showgrid="false"
     inkscape:zoom="4.72"
     inkscape:cx="25"
     inkscape:cy="25"
     inkscape:window-x="0"
     inkscape:window-y="0"
     inkscape:window-maximized="0"
     inkscape:current-layer="svg2" />
  <g
     id="surface1">
    <path
       style="fill:#ffffff"
       d="m 31.167969,8 c -0.46875,-0.011719 -0.878906,0.167969 -1.089844,0.6875 -0.359375,0.871094 0.535156,1.722656 0.855469,2.167969 0.222656,0.308594 0.511719,0.65625 0.671875,1.003906 0.105469,0.230469 0.121094,0.460938 0.210937,0.703125 0.222657,0.597656 0.578125,1.277344 0.863282,1.832031 0.144531,0.28125 0.304687,0.574219 0.488281,0.824219 0.113281,0.152344 0.304687,0.222656 0.335937,0.457031 -0.1875,0.265625 -0.199218,0.675782 -0.304687,1.011719 -0.476563,1.503906 -0.296875,3.375 0.394531,4.484375 0.214844,0.34375 0.71875,1.074219 1.40625,0.796875 0.601563,-0.246094 0.46875,-1.007812 0.640625,-1.683594 0.03906,-0.148437 0.01563,-0.261718 0.09375,-0.363281 l 0,0.03125 c 0.179688,0.367188 0.363281,0.734375 0.546875,1.097656 0.410156,0.65625 1.132813,1.339844 1.742188,1.804688 0.316406,0.238281 0.566406,0.652344 0.976562,0.792969 l 0,-0.03125 -0.03125,0 c -0.07813,-0.125 -0.203125,-0.175782 -0.304687,-0.273438 -0.238282,-0.234375 -0.503907,-0.527344 -0.699219,-0.796875 -0.558594,-0.753906 -1.050781,-1.582031 -1.496094,-2.441406 -0.214844,-0.410156 -0.402344,-0.863281 -0.582031,-1.28125 -0.07031,-0.164063 -0.07031,-0.40625 -0.214844,-0.492188 -0.199219,0.308594 -0.488281,0.554688 -0.640625,0.917969 -0.242187,0.578125 -0.277344,1.285156 -0.367187,2.015625 -0.05469,0.01953 -0.03125,0.0039 -0.05859,0.03125 -0.425781,-0.105469 -0.578125,-0.542969 -0.734375,-0.917969 -0.398438,-0.949218 -0.476563,-2.480468 -0.121094,-3.570312 0.08984,-0.285156 0.5,-1.175781 0.335938,-1.4375 -0.07813,-0.261719 -0.34375,-0.410156 -0.488282,-0.609375 C 33.414063,14.515625 33.234375,14.191406 33.109375,13.90625 32.78125,13.164063 32.472656,12.304688 32.125,11.554688 31.960938,11.195313 31.683594,10.835938 31.453125,10.515625 31.199219,10.164063 30.917969,9.90625 30.71875,9.476563 30.652344,9.328125 30.554688,9.085938 30.660156,8.929688 c 0.03125,-0.105469 0.07813,-0.148438 0.183594,-0.183594 0.175781,-0.136719 0.667969,0.042969 0.855469,0.121094 0.488281,0.203125 0.898437,0.398437 1.3125,0.671875 C 33.210938,9.671875 33.410156,9.925781 33.652344,10 l 0.273437,0 c 0.433594,0.09766 0.914063,0.02734 1.3125,0.152344 0.710938,0.214844 1.347657,0.550781 1.921875,0.914062 1.761719,1.109375 3.203125,2.691407 4.183594,4.578125 0.160156,0.304688 0.230469,0.597657 0.371094,0.917969 0.277344,0.648438 0.632812,1.320313 0.914062,1.953125 0.277344,0.636719 0.550782,1.273438 0.945313,1.800781 0.207031,0.277344 1.011719,0.429688 1.375,0.582032 0.253906,0.109375 0.675781,0.222656 0.914062,0.367187 0.464844,0.277344 0.910157,0.609375 1.34375,0.917969 0.21875,0.152344 0.882813,0.484375 0.917969,0.761719 -1.074219,-0.02734 -1.894531,0.07031 -2.59375,0.367187 -0.199219,0.08594 -0.519531,0.08594 -0.550781,0.335938 0.105469,0.113281 0.125,0.285156 0.210937,0.425781 0.167969,0.269531 0.449219,0.632812 0.703125,0.824219 0.277344,0.207031 0.558594,0.429687 0.855469,0.613281 0.523438,0.316406 1.109375,0.5 1.617188,0.820312 0.296875,0.191407 0.597656,0.429688 0.886718,0.640625 0.144532,0.109375 0.238282,0.273438 0.425782,0.339844 l 0,-0.03125 c -0.09766,-0.125 -0.121094,-0.296875 -0.210938,-0.425781 L 49.066406,26.453125 C 48.679688,25.941406 48.1875,25.488281 47.664063,25.113281 47.246094,24.8125 46.3125,24.40625 46.140625,23.921875 l -0.03125,-0.03125 C 46.402344,23.859375 46.75,23.75 47.023438,23.675781 c 0.460937,-0.121093 0.867187,-0.08984 1.339843,-0.210937 0.214844,-0.0625 0.429688,-0.125 0.644532,-0.183594 l 0,-0.125 C 48.769531,22.914063 48.597656,22.585938 48.335938,22.363281 47.652344,21.78125 46.90625,21.199219 46.136719,20.714844 45.710938,20.445313 45.183594,20.269531 44.734375,20.042969 44.582031,19.964844 44.316406,19.925781 44.214844,19.796875 43.976563,19.496094 43.847656,19.113281 43.664063,18.761719 43.28125,18.023438 42.90625,17.21875 42.566406,16.441406 42.335938,15.914063 42.183594,15.390625 41.894531,14.914063 40.507813,12.636719 39.015625,11.257813 36.703125,9.90625 36.210938,9.617188 35.621094,9.507813 34.996094,9.359375 34.65625,9.335938 34.324219,9.316406 33.984375,9.296875 33.78125,9.210938 33.566406,8.960938 33.375,8.835938 32.894531,8.535156 31.949219,8.011719 31.167969,8 Z m 3.308594,3.3125 c -0.222657,-0.0039 -0.382813,0.02734 -0.550782,0.0625 l 0,0.03125 0.03125,0 c 0.105469,0.21875 0.296875,0.359375 0.429688,0.546875 0.101562,0.214844 0.199219,0.429688 0.300781,0.644531 l 0.03125,-0.03125 c 0.1875,-0.132812 0.277344,-0.347656 0.277344,-0.671875 -0.07813,-0.07813 -0.08984,-0.179687 -0.152344,-0.273437 -0.08984,-0.128906 -0.257812,-0.199219 -0.367187,-0.308594 z M 1.867188,23.996094 c -0.300782,0.01172 -0.628907,0.07031 -0.984375,0.183594 -0.59375,0.179687 -0.88671925,0.535156 -0.88671925,1.257812 l 0,7.5625 L 2,33 2,25.621094 4.777344,31.929688 c 0.34375,0.785156 0.8125,1.066406 1.730469,1.066406 0.921875,0 1.371093,-0.28125 1.714843,-1.066406 L 11,25.78125 11,33 l 2,0 0,-7.5625 c 0,-0.722656 -0.289062,-1.078125 -0.886719,-1.257812 -1.421875,-0.449219 -2.378906,-0.0625 -2.808593,0.910156 L 6.453125,31.503906 3.695313,25.089844 c -0.3125,-0.730469 -0.9375,-1.128906 -1.828125,-1.09375 z M 26.246094,24 C 25.457031,24 23,24.09375 23,26 l 0,1.234375 c 0,0.875 0.769531,1.589844 2.4375,1.765625 0.1875,0.01172 0.375,0.02734 0.5625,0.02734 0,0 1.945313,-0.03906 2,-0.02734 1.125,0 1,0.875 1,1 l 0,1 c 0,0.136719 -0.03125,1 -1.011719,1 L 23,32 l 0,1 5.007813,0 c 0.65625,0 1.292968,-0.136719 1.800781,-0.375 C 30.652344,32.238281 31,31.714844 31,31.027344 l 0,-1.429688 C 31,28.0625 29.09375,28 28,28 l -2,0 c -0.785156,0 -0.90625,-0.476562 -1,-1 l 0,-1 c 0.09375,-0.398437 0.269531,-0.9375 0.964844,-1 L 31,25 31,24 Z m 7.734375,0 c -1.476563,0.203125 -1.996094,0.9375 -1.996094,2 l 0,5 c 0,0.972656 0.542969,1.558594 1.660156,1.863281 0.375,0.105469 0.714844,0.148438 1.035157,0.148438 L 36.90625,33 l 1.308594,0 1.113281,1 2.25,0 -1.546875,-1.394531 c 0.726563,-0.300781 0.953125,-0.761719 0.953125,-1.625 l 0,-4.980469 c 0,-1.0625 -0.691406,-1.796875 -2.167969,-2 z M 42,24 l 0,6.957031 c 0,1.207032 0.683594,1.886719 2.492188,2.023438 C 44.660156,32.988281 44.832031,33 45,33 l 5,0 0,-1 -4.621094,0 C 44.347656,32 44,31.566406 44,30.949219 L 44,24 Z m -6.828125,1 2.574219,0 c 0.679687,0 1.136719,0.546875 1.238281,1 0,0 0.01563,4.65625 0.01563,5 0,0.34375 -0.191406,0.5 -0.191406,0.5 L 38.265625,31 36,31 l 1.113281,1 -1.941406,0 c -0.695312,0 -1.085937,-0.515625 -1.1875,-1 l 0,-4.898437 C 33.984375,25.570313 34.390625,25 35.171875,25 Z M 14,27 c 0.03906,0.03906 0,4.261719 0,4.34375 0.01563,0.875 1.125,1.640625 2.863281,1.65625 L 20,33 l 0,0.06641 c 0,0.1875 0.136719,0.8125 -1,0.933594 -0.01172,0 -4.988281,0 -5,0 l 0,1 5.214844,0 C 20.097656,34.972656 22.011719,34.773438 22,33.242188 22,33.214844 22.007813,27 22,27 l -2,0 0,5 c -0.03125,0 -2.476562,0.0078 -2.96875,0 C 16.066406,31.984375 15.984375,31.433594 16,31.222656 L 16,27 Z"
       id="path5"
       inkscape:connector-curvature="0" />
  </g>
</svg>
